<svg xmlns="http://www.w3.org/2000/svg" width="24" height="24" viewBox="0 0 24 24" fill="none" stroke-width="2" stroke-linecap="round" stroke-linejoin="round">
  <defs>
    <linearGradient id="logoGradient" x1="0%" y1="0%" x2="100%" y2="0%">
      <stop offset="0%" style="stop-color:#FD5E1E;stop-opacity:1" />
      <stop offset="100%" style="stop-color:#0165B9;stop-opacity:1" />
    </linearGradient>
  </defs>
  <path d="M5 7 3 5" stroke="url(#logoGradient)"/>
  <path d="M9 6V3" stroke="url(#logoGradient)"/>
  <path d="m13 7 2-2" stroke="url(#logoGradient)"/>
  <circle cx="9" cy="13" r="3" stroke="url(#logoGradient)"/>
  <path d="M11.83 12H20a2 2 0 0 1 2 2v4a2 2 0 0 1-2 2H4a2 2 0 0 1-2-2v-4a2 2 0 0 1 2-2h2.17" stroke="url(#logoGradient)"/>
  <path d="M16 16a2 2 0 0 1-2-2h-4a2 2 0 0 1-2 2" stroke="url(#logoGradient)"/>
</svg>